<svg width="1831" height="338" viewBox="0 0 1831 338" fill="none" xmlns="http://www.w3.org/2000/svg">
<path d="M424.98 86.4818C428.463 86.4818 431.287 83.6578 431.287 80.1745V39.0319C431.287 35.5486 428.463 32.7247 424.98 32.7247C424.98 32.7247 239.528 32.7247 239.19 32.7247C231.061 32.7247 231.045 45.3392 239.189 45.3392H418.673V73.8673H196.562C193.078 73.8673 190.254 76.6912 190.254 80.1745V186.194C190.254 189.678 193.078 192.502 196.562 192.502H418.673V312.385H390.145V227.337C390.145 223.854 387.321 221.03 383.837 221.03H196.562C193.078 221.03 190.254 223.854 190.254 227.337V312.385H161.726V45.3383C161.726 45.3383 213.844 45.3383 213.96 45.3383C222.071 45.3383 222.123 32.7238 213.96 32.7238H161.726C161.726 32.7238 161.726 6.34692 161.726 6.29983C161.726 2.01847 157.368 -1.06956 153.327 0.349147L4.92817 52.5017C2.40274 53.3897 0.712402 55.7755 0.712402 58.4532V318.693C0.712402 322.176 3.53637 325 7.01965 325H424.98C428.463 325 431.287 322.176 431.287 318.693V186.194C431.287 182.711 428.463 179.887 424.98 179.887H390.145V86.4818H424.98ZM96.4135 312.385H66.0261V244.831H96.4135V312.385ZM122.556 312.385H109.027V238.523C109.027 235.04 106.203 232.216 102.72 232.216H59.7188C56.2355 232.216 53.4116 235.04 53.4116 238.523V312.385H39.8821V220.115H122.556V312.385ZM149.111 312.385H135.17V213.807C135.17 210.324 132.346 207.5 128.863 207.5H33.5748C30.0916 207.5 27.2676 210.324 27.2676 213.807V312.385H13.3269V62.9212L149.111 15.2015V312.385ZM377.53 312.385H202.869V294.549H377.53V312.385ZM377.53 281.934H202.869V264.096H377.53V281.934ZM377.53 251.481H202.869V233.644H377.53V251.481ZM252.679 179.887H202.869V86.4818H252.679V179.887ZM315.105 179.887H265.295V86.4818H315.105V179.887ZM377.53 179.887H327.72V86.4818H377.53V179.887Z" fill="#141414"/>
<path d="M128.863 108.498H33.5748C30.0915 108.498 27.2676 111.322 27.2676 114.805V186.195C27.2676 189.678 30.0915 192.502 33.5748 192.502H128.863C132.346 192.502 135.17 189.678 135.17 186.195V114.805C135.17 111.322 132.346 108.498 128.863 108.498ZM74.9117 179.888H39.8821V121.113H74.9117V179.888ZM122.556 179.888H87.5262V121.113H122.556V179.888Z" fill="#141414"/>
<path d="M642.8 150.2H590.4L582 175H546.2L597 34.6H636.6L687.4 175H651.2L642.8 150.2ZM634 123.8L616.6 72.4L599.4 123.8H634ZM696.061 119C696.061 107.533 698.194 97.4667 702.461 88.8C706.861 80.1333 712.794 73.4667 720.261 68.8C727.728 64.1333 736.061 61.8 745.261 61.8C752.594 61.8 759.261 63.3333 765.261 66.4C771.394 69.4667 776.194 73.6 779.661 78.8V27H813.861V175H779.661V159C776.461 164.333 771.861 168.6 765.861 171.8C759.994 175 753.128 176.6 745.261 176.6C736.061 176.6 727.728 174.267 720.261 169.6C712.794 164.8 706.861 158.067 702.461 149.4C698.194 140.6 696.061 130.467 696.061 119ZM779.661 119.2C779.661 110.667 777.261 103.933 772.461 99C767.794 94.0667 762.061 91.6 755.261 91.6C748.461 91.6 742.661 94.0667 737.861 99C733.194 103.8 730.861 110.467 730.861 119C730.861 127.533 733.194 134.333 737.861 139.4C742.661 144.333 748.461 146.8 755.261 146.8C762.061 146.8 767.794 144.333 772.461 139.4C777.261 134.467 779.661 127.733 779.661 119.2ZM831.803 119C831.803 107.533 833.936 97.4667 838.203 88.8C842.603 80.1333 848.536 73.4667 856.003 68.8C863.47 64.1333 871.803 61.8 881.003 61.8C888.87 61.8 895.736 63.4 901.603 66.6C907.603 69.8 912.203 74 915.403 79.2V63.4H949.603V175H915.403V159.2C912.07 164.4 907.403 168.6 901.403 171.8C895.536 175 888.67 176.6 880.803 176.6C871.736 176.6 863.47 174.267 856.003 169.6C848.536 164.8 842.603 158.067 838.203 149.4C833.936 140.6 831.803 130.467 831.803 119ZM915.403 119.2C915.403 110.667 913.003 103.933 908.203 99C903.536 94.0667 897.803 91.6 891.003 91.6C884.203 91.6 878.403 94.0667 873.603 99C868.936 103.8 866.603 110.467 866.603 119C866.603 127.533 868.936 134.333 873.603 139.4C878.403 144.333 884.203 146.8 891.003 146.8C897.803 146.8 903.536 144.333 908.203 139.4C913.003 134.467 915.403 127.733 915.403 119.2ZM1116.75 62.2C1130.61 62.2 1141.61 66.4 1149.75 74.8C1158.01 83.2 1162.15 94.8667 1162.15 109.8V175H1128.15V114.4C1128.15 107.2 1126.21 101.667 1122.35 97.8C1118.61 93.8 1113.41 91.8 1106.75 91.8C1100.08 91.8 1094.81 93.8 1090.95 97.8C1087.21 101.667 1085.35 107.2 1085.35 114.4V175H1051.35V114.4C1051.35 107.2 1049.41 101.667 1045.55 97.8C1041.81 93.8 1036.61 91.8 1029.95 91.8C1023.28 91.8 1018.01 93.8 1014.15 97.8C1010.41 101.667 1008.55 107.2 1008.55 114.4V175H974.345V63.4H1008.55V77.4C1012.01 72.7333 1016.55 69.0667 1022.15 66.4C1027.75 63.6 1034.08 62.2 1041.15 62.2C1049.55 62.2 1057.01 64 1063.55 67.6C1070.21 71.2 1075.41 76.3333 1079.15 83C1083.01 76.8667 1088.28 71.8667 1094.95 68C1101.61 64.1333 1108.88 62.2 1116.75 62.2ZM1279.25 176.4C1268.98 176.4 1259.78 174.733 1251.65 171.4C1243.51 168.067 1236.98 163.133 1232.05 156.6C1227.25 150.067 1224.71 142.2 1224.45 133H1260.85C1261.38 138.2 1263.18 142.2 1266.25 145C1269.31 147.667 1273.31 149 1278.25 149C1283.31 149 1287.31 147.867 1290.25 145.6C1293.18 143.2 1294.65 139.933 1294.65 135.8C1294.65 132.333 1293.45 129.467 1291.05 127.2C1288.78 124.933 1285.91 123.067 1282.45 121.6C1279.11 120.133 1274.31 118.467 1268.05 116.6C1258.98 113.8 1251.58 111 1245.85 108.2C1240.11 105.4 1235.18 101.267 1231.05 95.8C1226.91 90.3333 1224.85 83.2 1224.85 74.4C1224.85 61.3333 1229.58 51.1333 1239.05 43.8C1248.51 36.3333 1260.85 32.6 1276.05 32.6C1291.51 32.6 1303.98 36.3333 1313.45 43.8C1322.91 51.1333 1327.98 61.4 1328.65 74.6H1291.65C1291.38 70.0667 1289.71 66.5333 1286.65 64C1283.58 61.3333 1279.65 60 1274.85 60C1270.71 60 1267.38 61.1333 1264.85 63.4C1262.31 65.5333 1261.05 68.6667 1261.05 72.8C1261.05 77.3333 1263.18 80.8667 1267.45 83.4C1271.71 85.9333 1278.38 88.6667 1287.45 91.6C1296.51 94.6667 1303.85 97.6 1309.45 100.4C1315.18 103.2 1320.11 107.267 1324.25 112.6C1328.38 117.933 1330.45 124.8 1330.45 133.2C1330.45 141.2 1328.38 148.467 1324.25 155C1320.25 161.533 1314.38 166.733 1306.65 170.6C1298.91 174.467 1289.78 176.4 1279.25 176.4ZM1493.89 62.2C1507.76 62.2 1518.76 66.4 1526.89 74.8C1535.16 83.2 1539.29 94.8667 1539.29 109.8V175H1505.29V114.4C1505.29 107.2 1503.36 101.667 1499.49 97.8C1495.76 93.8 1490.56 91.8 1483.89 91.8C1477.23 91.8 1471.96 93.8 1468.09 97.8C1464.36 101.667 1462.49 107.2 1462.49 114.4V175H1428.49V114.4C1428.49 107.2 1426.56 101.667 1422.69 97.8C1418.96 93.8 1413.76 91.8 1407.09 91.8C1400.43 91.8 1395.16 93.8 1391.29 97.8C1387.56 101.667 1385.69 107.2 1385.69 114.4V175H1351.49V63.4H1385.69V77.4C1389.16 72.7333 1393.69 69.0667 1399.29 66.4C1404.89 63.6 1411.23 62.2 1418.29 62.2C1426.69 62.2 1434.16 64 1440.69 67.6C1447.36 71.2 1452.56 76.3333 1456.29 83C1460.16 76.8667 1465.43 71.8667 1472.09 68C1478.76 64.1333 1486.03 62.2 1493.89 62.2ZM1580.41 51.8C1574.41 51.8 1569.48 50.0667 1565.61 46.6C1561.88 43 1560.01 38.6 1560.01 33.4C1560.01 28.0667 1561.88 23.6667 1565.61 20.2C1569.48 16.6 1574.41 14.8 1580.41 14.8C1586.28 14.8 1591.08 16.6 1594.81 20.2C1598.68 23.6667 1600.61 28.0667 1600.61 33.4C1600.61 38.6 1598.68 43 1594.81 46.6C1591.08 50.0667 1586.28 51.8 1580.41 51.8ZM1597.41 63.4V175H1563.21V63.4H1597.41ZM1684.4 146V175H1667C1654.6 175 1644.93 172 1638 166C1631.06 159.867 1627.6 149.933 1627.6 136.2V91.8H1614V63.4H1627.6V36.2H1661.8V63.4H1684.2V91.8H1661.8V136.6C1661.8 139.933 1662.6 142.333 1664.2 143.8C1665.8 145.267 1668.46 146 1672.2 146H1684.4ZM1772.05 62.2C1784.85 62.2 1795.11 66.4667 1802.85 75C1810.58 83.4 1814.45 95 1814.45 109.8V175H1780.45V114.4C1780.45 106.933 1778.51 101.133 1774.65 97C1770.78 92.8667 1765.58 90.8 1759.05 90.8C1752.51 90.8 1747.31 92.8667 1743.45 97C1739.58 101.133 1737.65 106.933 1737.65 114.4V175H1703.45V27H1737.65V78.4C1741.11 73.4667 1745.85 69.5333 1751.85 66.6C1757.85 63.6667 1764.58 62.2 1772.05 62.2Z" fill="#141414"/>
<path d="M560.82 322.08C556.2 322.08 552.6 321 550.02 318.84C547.5 316.68 546.24 313.83 546.24 310.29C546.24 305.85 548.22 302.19 552.18 299.31C556.2 296.37 562.02 294.9 569.64 294.9C570.06 294.9 570.6 294.9 571.26 294.9C571.98 294.9 572.73 294.93 573.51 294.99C573.09 291.51 572.1 289.17 570.54 287.97C568.98 286.71 566.88 286.08 564.24 286.08C562.32 286.08 560.52 286.41 558.84 287.07C557.16 287.67 555.48 288.81 553.8 290.49L548.22 284.37C550.62 282.15 553.23 280.56 556.05 279.6C558.87 278.64 561.75 278.16 564.69 278.16C568.17 278.16 571.35 278.73 574.23 279.87C577.11 280.95 579.39 282.87 581.07 285.63C582.75 288.33 583.59 292.08 583.59 296.88V321H573.06V316.5C571.5 318.6 569.7 320.07 567.66 320.91C565.62 321.69 563.34 322.08 560.82 322.08ZM556.41 309.03C556.41 310.95 557.01 312.3 558.21 313.08C559.47 313.8 561 314.16 562.8 314.16C566.04 314.16 568.56 313.2 570.36 311.28C572.16 309.3 573.24 306.21 573.6 302.01C572.82 302.01 572.07 302.01 571.35 302.01C570.63 301.95 570 301.92 569.46 301.92C564.66 301.92 561.27 302.58 559.29 303.9C557.37 305.22 556.41 306.93 556.41 309.03ZM616.26 279.15H626.79L626.7 285.9C627.84 283.5 629.52 281.61 631.74 280.23C633.96 278.85 636.3 278.16 638.76 278.16C643.44 278.16 647.31 279.75 650.37 282.93L646.05 291.48L645.78 292.2L644.97 291.84C644.79 291.36 644.61 290.88 644.43 290.4C644.25 289.86 643.8 289.26 643.08 288.6C642.24 287.94 641.34 287.43 640.38 287.07C639.48 286.71 638.49 286.53 637.41 286.53C634.53 286.53 632.01 287.52 629.85 289.5C627.69 291.48 626.61 294.66 626.61 299.04V321H616.26V279.15ZM698.52 322.08C694.44 322.08 690.78 321.15 687.54 319.29C684.3 317.43 681.72 314.88 679.8 311.64C677.94 308.34 677.01 304.59 677.01 300.39C677.01 296.25 677.94 292.5 679.8 289.14C681.72 285.78 684.3 283.11 687.54 281.13C690.78 279.15 694.47 278.16 698.61 278.16C702.45 278.16 705.81 278.88 708.69 280.32C711.57 281.76 713.85 283.74 715.53 286.26L709.86 292.47L709.32 293.1L708.6 292.56C708.6 292.02 708.54 291.54 708.42 291.12C708.3 290.64 707.91 290.01 707.25 289.23C706.11 288.15 704.82 287.4 703.38 286.98C702 286.56 700.44 286.35 698.7 286.35C696.72 286.35 694.86 286.89 693.12 287.97C691.38 289.05 689.97 290.64 688.89 292.74C687.87 294.84 687.36 297.39 687.36 300.39C687.36 303.09 687.9 305.46 688.98 307.5C690.06 309.48 691.47 311.04 693.21 312.18C695.01 313.26 696.93 313.8 698.97 313.8C700.83 313.8 702.66 313.41 704.46 312.63C706.26 311.85 707.94 310.5 709.5 308.58L715.17 315.06C712.95 317.52 710.37 319.32 707.43 320.46C704.49 321.54 701.52 322.08 698.52 322.08ZM743.7 260.61H754.68V261.42C754.38 261.78 754.17 262.2 754.05 262.68C753.99 263.1 753.96 263.79 753.96 264.75V284.64C755.46 282.48 757.32 280.86 759.54 279.78C761.76 278.7 763.98 278.16 766.2 278.16C770.22 278.16 773.46 279.54 775.92 282.3C778.38 285 779.61 289.47 779.61 295.71V321H769.35V295.89C769.35 292.23 768.81 289.68 767.73 288.24C766.71 286.74 765.3 285.99 763.5 285.99C760.92 285.99 758.67 286.98 756.75 288.96C754.89 290.88 753.96 293.55 753.96 296.97V321H743.7V260.61ZM811.56 321V312.99H821.82V287.16H812.1V279.15H832.08V312.99H841.44V321H811.56ZM826.5 272.22C824.7 272.22 823.17 271.62 821.91 270.42C820.71 269.22 820.11 267.78 820.11 266.1C820.11 264.36 820.71 262.92 821.91 261.78C823.11 260.58 824.64 259.98 826.5 259.98C828.18 259.98 829.65 260.58 830.91 261.78C832.23 262.98 832.89 264.42 832.89 266.1C832.89 267.78 832.23 269.22 830.91 270.42C829.65 271.62 828.18 272.22 826.5 272.22ZM896.16 321.9C892.92 321.9 890.25 321.21 888.15 319.83C886.05 318.39 884.52 316.02 883.56 312.72C882.6 309.42 882.24 304.95 882.48 299.31L882.93 287.16H874.38L874.56 279.15H883.29L883.65 269.25L894.18 267.9L894.99 267.81L895.08 268.62C894.78 269.04 894.51 269.49 894.27 269.97C894.09 270.39 893.97 271.08 893.91 272.04L893.28 279.15H906.78L906.69 287.16H893.19L892.65 299.13C892.47 303.03 892.59 306.03 893.01 308.13C893.49 310.23 894.18 311.7 895.08 312.54C896.04 313.32 897.18 313.71 898.5 313.71C900.42 313.71 902.13 313.32 903.63 312.54C905.19 311.76 906.63 310.86 907.95 309.84L910.11 317.22C908.01 318.72 905.82 319.89 903.54 320.73C901.26 321.51 898.8 321.9 896.16 321.9ZM958.89 321.99C954.87 321.99 951.27 321.15 948.09 319.47C944.97 317.79 942.51 315.33 940.71 312.09C938.91 308.85 938.01 304.95 938.01 300.39C938.01 295.71 938.88 291.72 940.62 288.42C942.42 285.12 944.79 282.6 947.73 280.86C950.73 279.06 954.06 278.16 957.72 278.16C960.96 278.16 963.93 278.91 966.63 280.41C969.39 281.91 971.58 284.19 973.2 287.25C974.88 290.25 975.72 294 975.72 298.5C975.72 299.1 975.69 299.82 975.63 300.66C975.63 301.5 975.6 302.22 975.54 302.82H947.82C947.94 305.46 948.57 307.62 949.71 309.3C950.85 310.92 952.26 312.12 953.94 312.9C955.62 313.68 957.42 314.07 959.34 314.07C961.2 314.07 962.97 313.77 964.65 313.17C966.33 312.57 967.89 311.55 969.33 310.11L974.55 315.15C972.51 317.55 970.17 319.29 967.53 320.37C964.89 321.45 962.01 321.99 958.89 321.99ZM948 295.17H965.82C965.82 292.23 965.07 289.98 963.57 288.42C962.07 286.86 959.97 286.08 957.27 286.08C954.93 286.08 952.89 286.83 951.15 288.33C949.41 289.77 948.36 292.05 948 295.17ZM1024.77 322.08C1020.69 322.08 1017.03 321.15 1013.79 319.29C1010.55 317.43 1007.97 314.88 1006.05 311.64C1004.19 308.34 1003.26 304.59 1003.26 300.39C1003.26 296.25 1004.19 292.5 1006.05 289.14C1007.97 285.78 1010.55 283.11 1013.79 281.13C1017.03 279.15 1020.72 278.16 1024.86 278.16C1028.7 278.16 1032.06 278.88 1034.94 280.32C1037.82 281.76 1040.1 283.74 1041.78 286.26L1036.11 292.47L1035.57 293.1L1034.85 292.56C1034.85 292.02 1034.79 291.54 1034.67 291.12C1034.55 290.64 1034.16 290.01 1033.5 289.23C1032.36 288.15 1031.07 287.4 1029.63 286.98C1028.25 286.56 1026.69 286.35 1024.95 286.35C1022.97 286.35 1021.11 286.89 1019.37 287.97C1017.63 289.05 1016.22 290.64 1015.14 292.74C1014.12 294.84 1013.61 297.39 1013.61 300.39C1013.61 303.09 1014.15 305.46 1015.23 307.5C1016.31 309.48 1017.72 311.04 1019.46 312.18C1021.26 313.26 1023.18 313.8 1025.22 313.8C1027.08 313.8 1028.91 313.41 1030.71 312.63C1032.51 311.85 1034.19 310.5 1035.75 308.58L1041.42 315.06C1039.2 317.52 1036.62 319.32 1033.68 320.46C1030.74 321.54 1027.77 322.08 1024.77 322.08ZM1091.91 321.9C1088.67 321.9 1086 321.21 1083.9 319.83C1081.8 318.39 1080.27 316.02 1079.31 312.72C1078.35 309.42 1077.99 304.95 1078.23 299.31L1078.68 287.16H1070.13L1070.31 279.15H1079.04L1079.4 269.25L1089.93 267.9L1090.74 267.81L1090.83 268.62C1090.53 269.04 1090.26 269.49 1090.02 269.97C1089.84 270.39 1089.72 271.08 1089.66 272.04L1089.03 279.15H1102.53L1102.44 287.16H1088.94L1088.4 299.13C1088.22 303.03 1088.34 306.03 1088.76 308.13C1089.24 310.23 1089.93 311.7 1090.83 312.54C1091.79 313.32 1092.93 313.71 1094.25 313.71C1096.17 313.71 1097.88 313.32 1099.38 312.54C1100.94 311.76 1102.38 310.86 1103.7 309.84L1105.86 317.22C1103.76 318.72 1101.57 319.89 1099.29 320.73C1097.01 321.51 1094.55 321.9 1091.91 321.9ZM1231.5 322.26L1227.09 315.6C1225.29 317.64 1223.19 319.23 1220.79 320.37C1218.39 321.45 1215.84 321.99 1213.14 321.99C1210.02 321.99 1207.35 321.36 1205.13 320.1C1202.91 318.84 1201.17 317.13 1199.91 314.97C1198.71 312.81 1198.11 310.38 1198.11 307.68C1198.11 304.08 1198.98 300.78 1200.72 297.78C1202.46 294.72 1205.01 292.14 1208.37 290.04C1206.39 287.7 1204.95 285.45 1204.05 283.29C1203.21 281.07 1202.79 278.79 1202.79 276.45C1202.79 274.11 1203.42 272.04 1204.68 270.24C1205.94 268.38 1207.59 266.91 1209.63 265.83C1211.67 264.75 1213.86 264.21 1216.2 264.21C1218.78 264.21 1221 264.81 1222.86 266.01C1224.78 267.15 1226.25 268.65 1227.27 270.51C1228.35 272.37 1228.89 274.35 1228.89 276.45C1228.89 280.05 1228.05 283.11 1226.37 285.63C1224.69 288.15 1222.59 290.31 1220.07 292.11L1228.17 303.36C1229.07 302.16 1229.85 300.93 1230.51 299.67C1231.17 298.35 1231.53 297.09 1231.59 295.89C1231.59 295.59 1231.62 295.35 1231.68 295.17C1231.74 294.93 1231.89 294.63 1232.13 294.27L1239.33 299.31C1238.37 301.35 1237.38 303.21 1236.36 304.89C1235.34 306.57 1234.26 308.13 1233.12 309.57L1238.16 316.23L1231.5 322.26ZM1215.3 285.72C1217.1 284.76 1218.45 283.47 1219.35 281.85C1220.25 280.23 1220.7 278.58 1220.7 276.9C1220.7 275.58 1220.31 274.41 1219.53 273.39C1218.81 272.31 1217.73 271.77 1216.29 271.77C1214.79 271.77 1213.59 272.28 1212.69 273.3C1211.85 274.32 1211.43 275.46 1211.43 276.72C1211.43 277.98 1211.73 279.39 1212.33 280.95C1212.99 282.45 1213.98 284.04 1215.3 285.72ZM1213.95 314.07C1215.51 314.07 1216.98 313.68 1218.36 312.9C1219.74 312.06 1221.06 310.95 1222.32 309.57L1213.14 296.7C1209.42 299.34 1207.56 302.7 1207.56 306.78C1207.56 308.94 1208.13 310.71 1209.27 312.09C1210.41 313.41 1211.97 314.07 1213.95 314.07ZM1346.34 321.99C1343.22 321.99 1340.34 321.18 1337.7 319.56C1335.12 317.94 1333.02 315.48 1331.4 312.18C1329.78 308.88 1328.97 304.77 1328.97 299.85C1328.97 294.99 1329.75 290.97 1331.31 287.79C1332.87 284.55 1334.97 282.12 1337.61 280.5C1340.25 278.88 1343.19 278.07 1346.43 278.07C1348.53 278.07 1350.48 278.46 1352.28 279.24C1354.08 280.02 1355.49 281.28 1356.51 283.02V260.61H1367.4V261.42C1367.04 261.78 1366.8 262.2 1366.68 262.68C1366.62 263.1 1366.59 263.79 1366.59 264.75L1366.5 315.42C1366.5 316.38 1366.56 317.31 1366.68 318.21C1366.8 319.11 1367.07 320.04 1367.49 321H1357.5C1357.02 320.04 1356.75 319.29 1356.69 318.75C1356.63 318.15 1356.6 317.37 1356.6 316.41C1355.46 318.33 1353.99 319.74 1352.19 320.64C1350.39 321.54 1348.44 321.99 1346.34 321.99ZM1348.05 313.8C1353.57 313.8 1356.33 309.18 1356.33 299.94C1356.33 290.64 1353.48 285.99 1347.78 285.99C1344.9 285.99 1342.71 287.22 1341.21 289.68C1339.71 292.14 1338.96 295.47 1338.96 299.67C1338.96 304.11 1339.83 307.59 1341.57 310.11C1343.37 312.57 1345.53 313.8 1348.05 313.8ZM1415.64 321.99C1411.62 321.99 1408.02 321.15 1404.84 319.47C1401.72 317.79 1399.26 315.33 1397.46 312.09C1395.66 308.85 1394.76 304.95 1394.76 300.39C1394.76 295.71 1395.63 291.72 1397.37 288.42C1399.17 285.12 1401.54 282.6 1404.48 280.86C1407.48 279.06 1410.81 278.16 1414.47 278.16C1417.71 278.16 1420.68 278.91 1423.38 280.41C1426.14 281.91 1428.33 284.19 1429.95 287.25C1431.63 290.25 1432.47 294 1432.47 298.5C1432.47 299.1 1432.44 299.82 1432.38 300.66C1432.38 301.5 1432.35 302.22 1432.29 302.82H1404.57C1404.69 305.46 1405.32 307.62 1406.46 309.3C1407.6 310.92 1409.01 312.12 1410.69 312.9C1412.37 313.68 1414.17 314.07 1416.09 314.07C1417.95 314.07 1419.72 313.77 1421.4 313.17C1423.08 312.57 1424.64 311.55 1426.08 310.11L1431.3 315.15C1429.26 317.55 1426.92 319.29 1424.28 320.37C1421.64 321.45 1418.76 321.99 1415.64 321.99ZM1404.75 295.17H1422.57C1422.57 292.23 1421.82 289.98 1420.32 288.42C1418.82 286.86 1416.72 286.08 1414.02 286.08C1411.68 286.08 1409.64 286.83 1407.9 288.33C1406.16 289.77 1405.11 292.05 1404.75 295.17ZM1479.81 321.99C1475.97 321.99 1472.43 321.48 1469.19 320.46C1465.95 319.44 1463.07 317.73 1460.55 315.33L1465.05 307.05L1465.41 306.33L1466.13 306.78C1466.31 307.2 1466.49 307.68 1466.67 308.22C1466.85 308.7 1467.3 309.27 1468.02 309.93C1469.52 311.19 1471.2 312.18 1473.06 312.9C1474.98 313.62 1477.29 313.98 1479.99 313.98C1482.51 313.98 1484.46 313.56 1485.84 312.72C1487.22 311.88 1487.91 310.77 1487.91 309.39C1487.91 308.01 1487.13 306.9 1485.57 306.06C1484.07 305.22 1481.58 304.29 1478.1 303.27C1473.54 302.07 1469.91 300.45 1467.21 298.41C1464.51 296.37 1463.16 293.64 1463.16 290.22C1463.16 286.8 1464.63 283.95 1467.57 281.67C1470.57 279.33 1474.59 278.16 1479.63 278.16C1486.53 278.16 1492.14 280.29 1496.46 284.55L1491.51 291.48L1490.88 292.2L1490.25 291.66C1490.19 291.18 1490.04 290.73 1489.8 290.31C1489.62 289.89 1489.17 289.32 1488.45 288.6C1487.25 287.76 1485.87 287.13 1484.31 286.71C1482.81 286.23 1481.31 285.99 1479.81 285.99C1477.77 285.99 1476 286.32 1474.5 286.98C1473.06 287.64 1472.34 288.66 1472.34 290.04C1472.34 291.24 1473.12 292.26 1474.68 293.1C1476.24 293.94 1478.91 294.84 1482.69 295.8C1487.73 297.06 1491.39 298.74 1493.67 300.84C1495.95 302.88 1497.09 305.52 1497.09 308.76C1497.09 311.16 1496.43 313.38 1495.11 315.42C1493.79 317.4 1491.84 318.99 1489.26 320.19C1486.74 321.39 1483.59 321.99 1479.81 321.99ZM1529.31 321V312.99H1539.57V287.16H1529.85V279.15H1549.83V312.99H1559.19V321H1529.31ZM1544.25 272.22C1542.45 272.22 1540.92 271.62 1539.66 270.42C1538.46 269.22 1537.86 267.78 1537.86 266.1C1537.86 264.36 1538.46 262.92 1539.66 261.78C1540.86 260.58 1542.39 259.98 1544.25 259.98C1545.93 259.98 1547.4 260.58 1548.66 261.78C1549.98 262.98 1550.64 264.42 1550.64 266.1C1550.64 267.78 1549.98 269.22 1548.66 270.42C1547.4 271.62 1545.93 272.22 1544.25 272.22ZM1607.7 306.87C1605.6 306.87 1603.59 306.54 1601.67 305.88C1601.13 306.36 1600.68 306.81 1600.32 307.23C1599.96 307.59 1599.78 308.1 1599.78 308.76C1599.78 309.84 1600.86 310.65 1603.02 311.19C1605.18 311.73 1608.87 312 1614.09 312C1617.69 312 1620.51 312.51 1622.55 313.53C1624.59 314.55 1626.06 315.93 1626.96 317.67C1627.86 319.35 1628.31 321.18 1628.31 323.16C1628.31 325.5 1627.59 327.72 1626.15 329.82C1624.77 331.98 1622.61 333.72 1619.67 335.04C1616.79 336.42 1613.07 337.11 1608.51 337.11C1602.57 337.11 1597.92 336.09 1594.56 334.05C1591.2 332.07 1589.52 329.4 1589.52 326.04C1589.52 324.24 1590.09 322.56 1591.23 321C1592.43 319.5 1593.9 318.3 1595.64 317.4C1594.5 316.68 1593.6 315.84 1592.94 314.88C1592.34 313.86 1592.04 312.69 1592.04 311.37C1592.04 309.63 1592.52 308.1 1593.48 306.78C1594.44 305.46 1595.61 304.23 1596.99 303.09C1595.49 301.83 1594.29 300.3 1593.39 298.5C1592.55 296.64 1592.13 294.63 1592.13 292.47C1592.13 289.77 1592.79 287.34 1594.11 285.18C1595.49 282.96 1597.35 281.19 1599.69 279.87C1602.03 278.55 1604.7 277.89 1607.7 277.89C1609.62 277.89 1611.45 278.19 1613.19 278.79C1614.93 279.39 1616.46 280.23 1617.78 281.31C1619.4 280.17 1621.2 279.3 1623.18 278.7C1625.16 278.1 1627.29 277.89 1629.57 278.07L1630.56 285.09C1629 284.79 1627.44 284.73 1625.88 284.91C1624.38 285.09 1623 285.51 1621.74 286.17C1622.7 288.15 1623.18 290.25 1623.18 292.47C1623.18 295.23 1622.49 297.69 1621.11 299.85C1619.79 302.01 1617.96 303.72 1615.62 304.98C1613.28 306.24 1610.64 306.87 1607.7 306.87ZM1607.61 299.49C1609.65 299.49 1611.33 298.83 1612.65 297.51C1613.97 296.19 1614.63 294.51 1614.63 292.47C1614.63 290.49 1613.94 288.87 1612.56 287.61C1611.24 286.29 1609.59 285.63 1607.61 285.63C1605.81 285.63 1604.19 286.29 1602.75 287.61C1601.37 288.93 1600.68 290.55 1600.68 292.47C1600.68 294.39 1601.34 296.04 1602.66 297.42C1604.04 298.8 1605.69 299.49 1607.61 299.49ZM1597.35 324.51C1597.35 326.13 1598.46 327.3 1600.68 328.02C1602.96 328.8 1605.84 329.19 1609.32 329.19C1612.74 329.19 1615.35 328.74 1617.15 327.84C1619.01 326.94 1619.94 325.74 1619.94 324.24C1619.94 322.86 1619.34 321.87 1618.14 321.27C1617 320.73 1614.72 320.46 1611.3 320.46C1609.44 320.46 1607.61 320.37 1605.81 320.19C1604.01 320.01 1602.33 319.74 1600.77 319.38C1599.81 320.1 1599 320.85 1598.34 321.63C1597.68 322.41 1597.35 323.37 1597.35 324.51ZM1657.2 321V279.15H1667.37V284.91C1668.87 282.87 1670.61 281.25 1672.59 280.05C1674.57 278.79 1676.85 278.16 1679.43 278.16C1681.83 278.16 1684.05 278.76 1686.09 279.96C1688.19 281.1 1689.87 282.96 1691.13 285.54C1692.39 288.12 1693.02 291.51 1693.02 295.71V321H1682.85V295.89C1682.85 292.47 1682.31 289.98 1681.23 288.42C1680.15 286.8 1678.65 285.99 1676.73 285.99C1675.23 285.99 1673.76 286.41 1672.32 287.25C1670.88 288.03 1669.68 289.17 1668.72 290.67C1667.82 292.17 1667.37 293.97 1667.37 296.07V321H1657.2ZM1741.89 321.99C1737.87 321.99 1734.27 321.15 1731.09 319.47C1727.97 317.79 1725.51 315.33 1723.71 312.09C1721.91 308.85 1721.01 304.95 1721.01 300.39C1721.01 295.71 1721.88 291.72 1723.62 288.42C1725.42 285.12 1727.79 282.6 1730.73 280.86C1733.73 279.06 1737.06 278.16 1740.72 278.16C1743.96 278.16 1746.93 278.91 1749.63 280.41C1752.39 281.91 1754.58 284.19 1756.2 287.25C1757.88 290.25 1758.72 294 1758.72 298.5C1758.72 299.1 1758.69 299.82 1758.63 300.66C1758.63 301.5 1758.6 302.22 1758.54 302.82H1730.82C1730.94 305.46 1731.57 307.62 1732.71 309.3C1733.85 310.92 1735.26 312.12 1736.94 312.9C1738.62 313.68 1740.42 314.07 1742.34 314.07C1744.2 314.07 1745.97 313.77 1747.65 313.17C1749.33 312.57 1750.89 311.55 1752.33 310.11L1757.55 315.15C1755.51 317.55 1753.17 319.29 1750.53 320.37C1747.89 321.45 1745.01 321.99 1741.89 321.99ZM1731 295.17H1748.82C1748.82 292.23 1748.07 289.98 1746.57 288.42C1745.07 286.86 1742.97 286.08 1740.27 286.08C1737.93 286.08 1735.89 286.83 1734.15 288.33C1732.41 289.77 1731.36 292.05 1731 295.17ZM1790.76 279.15H1801.29L1801.2 285.9C1802.34 283.5 1804.02 281.61 1806.24 280.23C1808.46 278.85 1810.8 278.16 1813.26 278.16C1817.94 278.16 1821.81 279.75 1824.87 282.93L1820.55 291.48L1820.28 292.2L1819.47 291.84C1819.29 291.36 1819.11 290.88 1818.93 290.4C1818.75 289.86 1818.3 289.26 1817.58 288.6C1816.74 287.94 1815.84 287.43 1814.88 287.07C1813.98 286.71 1812.99 286.53 1811.91 286.53C1809.03 286.53 1806.51 287.52 1804.35 289.5C1802.19 291.48 1801.11 294.66 1801.11 299.04V321H1790.76V279.15Z" fill="#5F5F5F"/>
</svg>
