<svg width="572" height="572" viewBox="0 0 572 572" fill="none" xmlns="http://www.w3.org/2000/svg">
<path d="M147.844 152.585L147.836 152.592L147.828 152.6C139.417 161.01 127.972 166.339 115.79 165.578L115.774 165.577H115.758C104.3 165.577 92.0797 160.99 83.689 152.6L83.6813 152.592L83.6733 152.585C74.5275 144.201 69.9399 131.991 69.9399 119.758C69.9399 107.54 74.5192 96.0871 83.689 86.9173C92.0797 78.5266 103.529 73.9398 116.53 73.9398C127.979 73.9398 139.431 78.5206 147.828 86.9173C156.998 96.0871 161.577 107.54 161.577 119.758C161.577 131.991 156.99 144.201 147.844 152.585ZM116.53 57.5C99.4216 57.5 83.8524 63.7238 72.1739 75.4022C59.7294 87.8467 53.5 103.413 53.5 119.758C53.5 136.882 60.5068 152.447 72.1739 164.114C83.8365 175.776 100.175 182.791 115.771 182.016H115.772H115.772H115.773H115.774H115.774H115.775H115.776H115.777H115.777H115.778H115.779H115.78H115.781H115.782H115.782H115.783H115.784H115.785H115.786H115.787H115.788H115.789H115.79H115.791H115.792H115.793H115.794H115.795H115.796H115.798H115.799H115.8H115.801H115.802H115.803H115.805H115.806H115.807H115.808H115.81H115.811H115.812H115.813H115.815H115.816H115.817H115.819H115.82H115.822H115.823H115.824H115.826H115.827H115.829H115.83H115.832H115.833H115.835H115.836H115.838H115.839H115.841H115.843H115.844H115.846H115.848H115.849H115.851H115.853H115.854H115.856H115.858H115.859H115.861H115.863H115.865H115.867H115.868H115.87H115.872H115.874H115.876H115.878H115.88H115.881H115.883H115.885H115.887H115.889H115.891H115.893H115.895H115.897H115.899H115.901H115.903H115.905H115.907H115.909H115.912H115.914H115.916H115.918H115.92H115.922H115.924H115.927H115.929H115.931H115.933H115.936H115.938H115.94H115.942H115.945H115.947H115.949H115.952H115.954H115.956H115.959H115.961H115.963H115.966H115.968H115.971H115.973H115.976H115.978H115.981H115.983H115.986H115.988H115.991H115.993H115.996H115.998H116.001H116.003H116.006H116.009H116.011H116.014H116.016H116.019H116.022H116.024H116.027H116.03H116.032H116.035H116.038H116.041H116.043H116.046H116.049H116.052H116.055H116.057H116.06H116.063H116.066H116.069H116.072H116.074H116.077H116.08H116.083H116.086H116.089H116.092H116.095H116.098H116.101H116.104H116.107H116.11H116.113H116.116H116.119H116.122H116.125H116.128H116.131H116.134H116.137H116.14H116.143H116.146H116.15H116.153H116.156H116.159H116.162H116.165H116.168H116.172H116.175H116.178H116.181H116.185H116.188H116.191H116.194H116.198H116.201H116.204H116.207H116.211H116.214H116.217H116.221H116.224H116.227H116.231H116.234H116.238H116.241H116.244H116.248H116.251H116.255H116.258H116.261H116.265H116.268H116.272H116.275H116.279H116.282H116.286H116.289H116.293H116.296H116.3H116.303H116.307H116.31H116.314H116.318H116.321H116.325H116.328H116.332H116.336H116.339H116.343H116.347H116.35H116.354H116.357H116.361H116.365H116.368H116.372H116.376H116.38H116.383H116.387H116.391H116.395H116.398H116.402H116.406H116.41H116.413H116.417H116.421H116.425H116.428H116.432H116.436H116.44H116.444H116.448H116.451H116.455H116.459H116.463H116.467H116.471H116.475H116.479H116.482H116.486H116.49H116.494H116.498H116.502H116.506H116.51H116.514H116.518H116.522H116.526H116.53H116.534H116.538H116.542H116.546H116.55H116.554H116.558H116.562H116.566H116.57H116.574H116.578H116.582H116.586H116.59H116.594H116.598H116.602H116.606H116.61H116.615H116.619H116.623H116.627H116.631H116.635H116.639H116.643H116.647H116.652H116.656H116.66H116.664H116.668H116.672H116.677H116.681H116.685H116.689H116.693H116.698H116.702H116.706H116.71H116.714H116.719H116.723H116.727H116.731H116.736H116.74H116.744H116.748H116.753H116.757H116.761H116.765H116.77H116.774H116.778H116.782H116.787H116.791H116.795H116.8H116.804H116.808H116.813H116.817H116.821H116.826H116.83H116.834H116.839H116.843H116.847H116.852H116.856H116.86H116.865H116.869H116.873H116.878H116.882H116.886H116.891H116.895H116.9H116.904H116.908H116.913H116.917H116.922H116.926H116.93H116.935H116.939H116.944H116.948H116.952H116.957H116.961H116.966H116.97H116.975H116.979H116.983H116.988H116.992H116.997H117.001H117.006H117.01H117.015H117.019H117.024H117.028H117.032H117.037H117.041H117.046H117.05H117.055H117.059H117.064H117.068H117.073H117.077H117.082H117.086H117.091H117.095H117.1H117.104H117.109H117.113H117.118H117.122H117.127H117.131H117.136H117.14H117.145H117.149H117.154H117.158H117.163H117.167H117.172H117.176H117.181H117.185H117.19H117.194H117.199H117.203H117.208H117.212H117.217H117.221H117.226H117.23H117.235H117.239H117.244H117.248H117.253H117.257H117.262H117.267H117.271H117.276H117.28H117.285H117.289H117.294H117.298H117.303C132.882 182.016 147.674 175.783 159.343 164.114C171.008 152.449 178.014 136.889 178.017 119.769C178.792 103.403 171.778 87.8387 160.12 76.1787C148.442 63.725 132.87 57.5 116.53 57.5Z" fill="#141414" stroke="#141414"/>
<path d="M146.638 196.456H84.1074C71.4689 196.456 61.2197 206.726 61.2197 220.115V490.308C61.2197 502.935 72.2516 513.967 84.879 513.967H146.638C159.254 513.967 170.297 502.946 170.297 491.079V220.115C170.297 207.487 159.265 196.456 146.638 196.456ZM153.857 491.079C153.857 492.836 152.979 494.443 151.617 495.623C150.254 496.804 148.439 497.527 146.638 497.527H84.879C83.1116 497.527 81.3025 496.638 79.9253 495.261C78.5481 493.884 77.6596 492.075 77.6596 490.308V220.115C77.6596 218.314 78.3825 216.498 79.5637 215.136C80.7438 213.774 82.351 212.896 84.1074 212.896H146.638C148.405 212.896 150.214 213.785 151.591 215.162C152.968 216.539 153.857 218.348 153.857 220.115V491.079Z" fill="#141414" stroke="#141414"/>
<path d="M392.898 188.736C363.119 188.736 334.841 201.514 316.2 221.902V212.396C316.2 208.373 314.194 204.393 311.229 201.427C308.264 198.462 304.283 196.456 300.26 196.456H223.063C219.452 196.456 215.479 198.055 212.409 200.728C209.335 203.406 207.123 207.202 207.123 211.623V499.57C207.123 503.998 209.34 507.605 212.424 510.092C215.5 512.573 219.47 513.966 223.063 513.966H307.981C311.574 513.966 315.543 512.573 318.62 510.092C321.703 507.605 323.921 503.998 323.921 499.57V332.823C323.921 307.589 342.258 287.776 365.879 287.776C378.104 287.776 389.555 292.36 397.949 300.754L397.958 300.763L397.968 300.772C405.533 307.581 408.61 318.214 408.61 332.052V498.027C408.61 502.049 410.616 506.03 413.581 508.995C416.546 511.961 420.527 513.967 424.55 513.967H501.747C505.77 513.967 509.75 511.961 512.716 508.996C515.681 506.031 517.687 502.05 517.687 498.027V298.857C517.686 236.83 470.379 188.736 409.109 188.736H392.898ZM501.246 497.048L500.768 497.527H425.818L425.049 332.052C425.049 332.052 425.049 332.051 425.049 332.05C425.049 313.44 420.394 299.399 410.235 289.24C398.559 277.564 382.991 271.338 366.651 271.338L366.639 271.338C333.934 272.117 308.252 298.596 308.252 332.824V497.527H224.335V212.896H300.053L300.532 213.374V261.802V263.009L301.386 262.155L322.229 241.312L323.001 240.54L323.03 240.511L323.054 240.477C338.396 218.999 365.261 205.176 393.669 205.176H409.881C461.313 205.176 501.246 246.625 501.246 298.858V497.048Z" fill="#141414" stroke="#141414"/>
</svg>
